# xmcd CD database file
#
# Track frame offsets:
#	150
#	25448
#	57217
#	80609
#	98961
#	120170
#	148748
#	169996
#	191468
#	212379
#
# Disc length: 3124 seconds
#
# Revision: 0
# Processed by: cddbd v1.5.2PL0 Copyright (c) Steve Scherf et al.
# Submitted via: CDex 1.78
#
DISCID=840c320a
DTITLE=Sulaiman Hakim - Southern Roots
DYEAR=1900
DGENRE=Jazz
TTITLE0=That Juba Woman in the red house
TTITLE1=Lonesome feeling
TTITLE2=Watch out !
TTITLE3=Southern Roots
TTITLE4=Petite Fleur
TTITLE5=Kikasa FM Live
TTITLE6=Dirty Shame
TTITLE7=Evil
TTITLE8=Crossroads to Freedom
TTITLE9=Mystic Music
EXTD=
EXTT0=
EXTT1=
EXTT2=
EXTT3=
EXTT4=
EXTT5=
EXTT6=
EXTT7=
EXTT8=
EXTT9=
PLAYORDER=
